<?xml version="1.0" standalone="no"?>
<!DOCTYPE svg PUBLIC "-//W3C//DTD SVG 20010904//EN"
 "http://www.w3.org/TR/2001/REC-SVG-20010904/DTD/svg10.dtd">
<svg version="1.0" xmlns="http://www.w3.org/2000/svg"
 width="500.000000pt" height="500.000000pt" viewBox="0 0 500.000000 500.000000"
 preserveAspectRatio="xMidYMid meet">
<metadata>
Created by potrace 1.16, written by Peter Selinger 2001-2019
</metadata>
<g transform="translate(0.000000,500.000000) scale(0.100000,-0.100000)"
fill="#000000" stroke="none">
<path d="M2556 4165 c-18 -8 -25 -15 -17 -19 7 -4 9 -16 6 -27 -4 -11 -2 -19
4 -19 6 0 11 -7 11 -16 0 -11 -6 -15 -20 -11 -10 3 -22 0 -25 -7 -3 -8 -7 -8
-11 2 -9 18 -42 15 -47 -5 -3 -13 -5 -12 -6 5 -1 23 -1 23 -22 3 -23 -21 -17
-46 10 -37 13 5 12 3 -2 -8 -10 -8 -27 -47 -38 -88 -11 -40 -21 -77 -23 -83
-8 -29 -57 -118 -97 -180 -57 -88 -131 -177 -230 -280 -230 -237 -320 -337
-390 -430 -165 -218 -244 -390 -285 -613 -20 -108 -29 -304 -17 -357 l9 -40
24 45 c71 140 214 231 363 232 29 0 62 -2 73 -6 18 -5 22 0 33 46 35 153 151
351 313 534 25 27 82 96 129 154 212 262 296 395 350 550 29 83 32 274 6 358
-9 28 -13 52 -10 52 3 0 -1 7 -8 16 -8 9 -14 22 -14 28 -1 15 -12 42 -35 91
-29 62 -35 95 -17 95 18 0 31 16 20 23 -5 2 -21 -1 -37 -8z"/>
<path d="M2830 3440 c0 -5 34 -67 76 -137 87 -146 199 -365 242 -474 30 -75
71 -219 91 -317 24 -115 10 -379 -24 -477 -60 -173 -125 -272 -254 -388 -24
-21 -41 -40 -39 -42 1 -1 46 -24 98 -50 98 -49 239 -137 299 -186 19 -15 38
-26 42 -23 33 20 158 235 195 334 89 245 91 526 3 793 -70 216 -206 414 -500
731 -36 39 -90 98 -120 131 -78 86 -109 115 -109 105z"/>
<path d="M2156 2580 l-30 -5 -1 -130 c0 -71 1 -136 3 -142 2 -7 17 -13 33 -13
29 0 29 1 29 56 0 47 3 55 16 50 9 -3 17 -6 19 -6 2 0 17 -22 35 -50 28 -44
36 -50 67 -50 l35 0 -32 56 -31 56 25 27 c53 55 26 132 -52 150 -47 11 -62 11
-116 1z"/>
<path d="M2650 2534 c0 -17 -6 -28 -20 -31 -13 -3 -20 -14 -20 -29 0 -17 6
-24 20 -24 18 0 20 -7 20 -62 1 -79 14 -98 69 -98 37 0 41 2 41 24 0 18 -6 25
-22 28 -20 3 -23 10 -26 56 -3 50 -2 52 23 52 22 0 26 4 23 23 -2 14 -11 23
-25 25 -18 3 -23 10 -23 33 0 26 -3 29 -30 29 -26 0 -30 -4 -30 -26z"/>
<path d="M2833 2499 c-40 -12 -46 -21 -28 -45 12 -16 17 -17 34 -6 27 16 46
15 59 -1 9 -10 1 -16 -36 -26 -58 -15 -82 -36 -82 -71 0 -45 26 -59 113 -58
l77 0 0 74 c0 88 -13 119 -53 134 -34 12 -40 12 -84 -1z"/>
<path d="M2390 2420 c0 -101 15 -130 69 -130 20 0 42 5 48 11 8 8 13 8 17 0 4
-6 20 -11 37 -11 l29 0 0 105 0 105 -35 0 -35 0 0 -74 c0 -67 -2 -74 -22 -79
-37 -10 -48 10 -48 84 l0 69 -30 0 -30 0 0 -80z"/>
<path d="M2130 2071 l0 -148 68 -6 c38 -3 87 -3 110 0 37 5 42 9 42 32 0 25
-2 26 -58 25 -81 -2 -92 2 -92 37 l0 29 70 0 70 0 0 30 0 30 -70 0 -70 0 0 30
0 30 75 0 75 0 0 30 0 30 -110 0 -110 0 0 -149z"/>
<path d="M2401 2070 l3 -150 93 0 c89 0 94 1 127 30 82 72 69 207 -24 255 -19
10 -59 15 -115 15 l-87 0 3 -150z m190 59 c26 -34 24 -92 -3 -123 -17 -18 -35
-26 -68 -28 l-45 -3 -3 94 -3 94 52 -5 c39 -4 56 -11 70 -29z"/>
<path d="M2790 2163 c-26 -71 -47 -119 -67 -156 -8 -15 -18 -41 -23 -57 -8
-30 -8 -30 30 -30 33 0 39 4 49 30 10 29 12 30 71 30 60 0 61 0 76 -35 11 -27
20 -35 39 -35 33 0 41 22 23 63 -8 17 -35 80 -59 139 l-44 108 -37 0 c-35 0
-37 -2 -58 -57z"/>
</g>
</svg>
